Title                            : Super 8
Year                             : 2011
Genre                            : Mystery | Sci-Fi | Thriller
iMDB URL                         : http://www.imdb.com/title/tt1650062/

Complete name                    : Super.8.2011.BRRIP.720P.H264-ZEKTORM.mp4
Format                           : MPEG-4
Format profile                   : Base Media
Codec ID                         : isom
File size                        : 2.67 GiB
Duration                         : 1h 51mn
Overall bit rate                 : 3412 Kbps
Subtitles                        : English (Format: srt)

Video
ID                               : 1
Format                           : AVC
Format/Info                      : Advanced Video Codec
Format profile                   : High@L4.0
Format settings, CABAC           : Yes
Format settings, ReFrames        : 12 frames
Codec ID                         : avc1
Codec ID/Info                    : Advanced Video Coding
Duration                         : 1h 51mn
Bit rate mode                    : Variable
Bit rate                         : 3204 Kbps
Width                            : 1280 pixels
Height                           : 528 pixels
Display aspect ratio             : 2.424
Frame rate mode                  : Constant
Frame rate                       : 23.976 fps
Resolution                       : 24 bits
Colorimetry                      : 4:2:0
Scan type                        : Progressive
Bits/(Pixel*Frame)               : 0.198
Stream size                      : 2.50 GiB (94%)
Title                            : Video
Writing library                  : x264

Audio
ID                               : 2
Format                           : AAC
Format/Info                      : Advanced Audio Codec
Format version                   : Version 4
Format profile                   : LC
Format settings, SBR             : Yes
Format settings, PS              : No
Codec ID                         : 40
Duration                         : 1h 51mn
Bit rate mode                    : Variable
Bit rate                         : 205 Kbps
Maximum bit rate                 : 261 Kbps
Channel(s)                       : 6 channels
Channel positions                : Front: L C R, Rear: L R, LFE
Sampling rate                    : 48.0 KHz
Resolution                       : 16 bits
Stream size                      : 164 MiB (6%)
Language                         : English


Screenshots:

[img]http://img204.imageshack.us/img204/6297/snaps81.png[/img]

[img]http://img707.imageshack.us/img707/8459/snaps82.png[/img]

[img]http://img215.imageshack.us/img215/5026/snaps83.png[/img]

[img]http://img153.imageshack.us/img153/1593/snaps84.png[/img]
